<?xml version="1.0" encoding="utf-8"?>
<!-- Generator: Adobe Illustrator 19.0.0, SVG Export Plug-In . SVG Version: 6.00 Build 0)  -->
<svg version="1.1" id="圖層_1" xmlns="http://www.w3.org/2000/svg" xmlns:xlink="http://www.w3.org/1999/xlink" x="0px" y="0px"
	 viewBox="-5 2 10 18" style="enable-background:new -5 2 10 18;" xml:space="preserve">
<style type="text/css">
	.st0{fill:#fff;}
</style>
<g id="XMLID_1936_">
	<g id="XMLID_1937_">
		<path id="XMLID_2_" class="st0" d="M-3.9,2.5c0.2,0,0.5,0.1,0.7,0.3l7.8,7.4c0.2,0.2,0.3,0.4,0.3,0.7s-0.1,0.5-0.3,0.7
			c-2.9,2.8-7.2,7-7.7,7.5c-0.3,0.3-0.7,0.5-1.1,0.3c-0.5-0.2-0.8-0.8-0.6-1.3c0.1-0.3,0.1-0.3,7.2-7.2l-7-6.7c-0.4-0.4-0.4-1,0-1.4
			C-4.4,2.6-4.1,2.5-3.9,2.5z"/>
	</g>
</g>
</svg>
