<?xml version="1.0" encoding="utf-8"?>
<!-- Generator: Adobe Illustrator 19.0.0, SVG Export Plug-In . SVG Version: 6.00 Build 0)  -->
<svg version="1.1" id="圖層_1" xmlns="http://www.w3.org/2000/svg" xmlns:xlink="http://www.w3.org/1999/xlink" x="0px" y="0px"
	 viewBox="-5 2 10 18" style="enable-background:new -5 2 10 18;" xml:space="preserve">
<style type="text/css">
	.st0{fill:#fff;}
</style>
<g id="XMLID_1936_">
	<g id="XMLID_1937_">
		<path id="XMLID_2_" class="st0" d="M3.9,19.5c-0.2,0-0.5-0.1-0.7-0.3l-7.8-7.4c-0.2-0.2-0.3-0.5-0.3-0.7c0-0.3,0.1-0.5,0.3-0.7
			c2.9-2.8,7.2-7,7.7-7.5c0.3-0.3,0.7-0.5,1.1-0.3C4.7,2.7,5,3.3,4.8,3.8c-0.1,0.3-0.1,0.4-7.2,7.3l7,6.7c0.4,0.4,0.4,1,0,1.4
			C4.4,19.4,4.1,19.5,3.9,19.5z"/>
	</g>
</g>
</svg>
